<?plantuml 1.2026.1?><svg xmlns="http://www.w3.org/2000/svg" xmlns:xlink="http://www.w3.org/1999/xlink" contentStyleType="text/css" data-diagram-type="ACTIVITY" height="561px" preserveAspectRatio="none" style="width:172px;height:561px;background:#FFFFFF;" version="1.1" viewBox="0 0 172 561" width="172px" zoomAndPan="magnify"><defs/><g><ellipse cx="86.0273" cy="20" fill="#222222" rx="10" ry="10" style="stroke:#222222;stroke-width:1;"/><rect fill="#F1F1F1" height="35.0938" rx="12.5" ry="12.5" style="stroke:#181818;stroke-width:0.5;" width="102.7227" x="34.666" y="50"/><text fill="#000000" font-family="sans-serif" font-size="12" lengthAdjust="spacing" textLength="82.7227" x="44.666" y="72.457">Receive upload</text><rect fill="#F1F1F1" height="35.0938" rx="12.5" ry="12.5" style="stroke:#181818;stroke-width:0.5;" width="82.0156" x="45.0195" y="154.0117"/><text fill="#000000" font-family="sans-serif" font-size="12" lengthAdjust="spacing" textLength="62.0156" x="55.0195" y="176.4688">Extract files</text><polygon fill="#F1F1F1" points="64.6289,105.0938,107.4258,105.0938,119.4258,117.0938,107.4258,129.0938,64.6289,129.0938,52.6289,117.0938,64.6289,105.0938" style="stroke:#181818;stroke-width:0.5;"/><text fill="#000000" font-family="sans-serif" font-size="11" lengthAdjust="spacing" textLength="17.1177" x="90.0273" y="140.5127">yes</text><text fill="#000000" font-family="sans-serif" font-size="11" lengthAdjust="spacing" textLength="42.7969" x="64.6289" y="121.5947">Archive?</text><text fill="#000000" font-family="sans-serif" font-size="11" lengthAdjust="spacing" textLength="12.2354" x="119.4258" y="114.6768">no</text><polygon fill="#F1F1F1" points="86.0273,209.1055,98.0273,221.1055,86.0273,233.1055,74.0273,221.1055,86.0273,209.1055" style="stroke:#181818;stroke-width:0.5;"/><rect fill="#F1F1F1" height="35.0938" rx="12.5" ry="12.5" style="stroke:#181818;stroke-width:0.5;" width="150.0547" x="11" y="253.1055"/><text fill="#000000" font-family="sans-serif" font-size="12" lengthAdjust="spacing" textLength="130.0547" x="21" y="275.5625">Static analysis (Stage-2)</text><rect fill="#F1F1F1" height="35.0938" rx="12.5" ry="12.5" style="stroke:#181818;stroke-width:0.5;" width="139.7305" x="16.1621" y="308.1992"/><text fill="#000000" font-family="sans-serif" font-size="12" lengthAdjust="spacing" textLength="119.7305" x="26.1621" y="330.6563">Build prompt + context</text><rect fill="#F1F1F1" height="35.0938" rx="12.5" ry="12.5" style="stroke:#181818;stroke-width:0.5;" width="100.6719" x="35.6914" y="363.293"/><text fill="#000000" font-family="sans-serif" font-size="12" lengthAdjust="spacing" textLength="80.6719" x="45.6914" y="385.75">Call LLM (NIM)</text><rect fill="#F1F1F1" height="35.0938" rx="12.5" ry="12.5" style="stroke:#181818;stroke-width:0.5;" width="103.3672" x="34.3438" y="418.3867"/><text fill="#000000" font-family="sans-serif" font-size="12" lengthAdjust="spacing" textLength="83.3672" x="44.3438" y="440.8438">Interpret results</text><rect fill="#F1F1F1" height="35.0938" rx="12.5" ry="12.5" style="stroke:#181818;stroke-width:0.5;" width="91.3555" x="40.3496" y="473.4805"/><text fill="#000000" font-family="sans-serif" font-size="12" lengthAdjust="spacing" textLength="71.3555" x="50.3496" y="495.9375">Persist report</text><ellipse cx="86.0273" cy="539.5742" fill="none" rx="11" ry="11" style="stroke:#222222;stroke-width:1;"/><ellipse cx="86.0273" cy="539.5742" fill="#222222" rx="6" ry="6" style="stroke:#222222;stroke-width:1;"/><line style="stroke:#181818;stroke-width:1;" x1="86.0273" x2="86.0273" y1="30" y2="50"/><polygon fill="#181818" points="82.0273,40,86.0273,50,90.0273,40,86.0273,44" style="stroke:#181818;stroke-width:1;"/><line style="stroke:#181818;stroke-width:1;" x1="86.0273" x2="86.0273" y1="129.0938" y2="154.0117"/><polygon fill="#181818" points="82.0273,144.0117,86.0273,154.0117,90.0273,144.0117,86.0273,148.0117" style="stroke:#181818;stroke-width:1;"/><line style="stroke:#181818;stroke-width:1;" x1="119.4258" x2="137.0352" y1="117.0938" y2="117.0938"/><polygon fill="#181818" points="133.0352,161.5586,137.0352,171.5586,141.0352,161.5586,137.0352,165.5586" style="stroke:#181818;stroke-width:1;"/><line style="stroke:#181818;stroke-width:1;" x1="137.0352" x2="137.0352" y1="117.0938" y2="221.1055"/><line style="stroke:#181818;stroke-width:1;" x1="137.0352" x2="98.0273" y1="221.1055" y2="221.1055"/><polygon fill="#181818" points="108.0273,217.1055,98.0273,221.1055,108.0273,225.1055,104.0273,221.1055" style="stroke:#181818;stroke-width:1;"/><line style="stroke:#181818;stroke-width:1;" x1="86.0273" x2="86.0273" y1="189.1055" y2="209.1055"/><polygon fill="#181818" points="82.0273,199.1055,86.0273,209.1055,90.0273,199.1055,86.0273,203.1055" style="stroke:#181818;stroke-width:1;"/><line style="stroke:#181818;stroke-width:1;" x1="86.0273" x2="86.0273" y1="85.0938" y2="105.0938"/><polygon fill="#181818" points="82.0273,95.0938,86.0273,105.0938,90.0273,95.0938,86.0273,99.0938" style="stroke:#181818;stroke-width:1;"/><line style="stroke:#181818;stroke-width:1;" x1="86.0273" x2="86.0273" y1="233.1055" y2="253.1055"/><polygon fill="#181818" points="82.0273,243.1055,86.0273,253.1055,90.0273,243.1055,86.0273,247.1055" style="stroke:#181818;stroke-width:1;"/><line style="stroke:#181818;stroke-width:1;" x1="86.0273" x2="86.0273" y1="288.1992" y2="308.1992"/><polygon fill="#181818" points="82.0273,298.1992,86.0273,308.1992,90.0273,298.1992,86.0273,302.1992" style="stroke:#181818;stroke-width:1;"/><line style="stroke:#181818;stroke-width:1;" x1="86.0273" x2="86.0273" y1="343.293" y2="363.293"/><polygon fill="#181818" points="82.0273,353.293,86.0273,363.293,90.0273,353.293,86.0273,357.293" style="stroke:#181818;stroke-width:1;"/><line style="stroke:#181818;stroke-width:1;" x1="86.0273" x2="86.0273" y1="398.3867" y2="418.3867"/><polygon fill="#181818" points="82.0273,408.3867,86.0273,418.3867,90.0273,408.3867,86.0273,412.3867" style="stroke:#181818;stroke-width:1;"/><line style="stroke:#181818;stroke-width:1;" x1="86.0273" x2="86.0273" y1="453.4805" y2="473.4805"/><polygon fill="#181818" points="82.0273,463.4805,86.0273,473.4805,90.0273,463.4805,86.0273,467.4805" style="stroke:#181818;stroke-width:1;"/><line style="stroke:#181818;stroke-width:1;" x1="86.0273" x2="86.0273" y1="508.5742" y2="528.5742"/><polygon fill="#181818" points="82.0273,518.5742,86.0273,528.5742,90.0273,518.5742,86.0273,522.5742" style="stroke:#181818;stroke-width:1;"/><?plantuml-src 5Oqz3i8m34RtdC9ZAiJ2c0u844Eb5Y4uGPIwD9998jj5xUr9r_U-7r7FQjmB0yOVmb8e-x4rSG9xuJ1NTcv0PqnWDvJ60BZxgko3mXG9fJL8Wc1JRWocCKx6lTLh3E2JfqsYWAtWWyTJqnftNIADK3X_Yy81GawAgrPnyqJGzmFOHpVioQuQBemAZBAGrYVtHAw3EocPQqiqbpy0?></g></svg>