<?plantuml 1.2026.1?><svg xmlns="http://www.w3.org/2000/svg" xmlns:xlink="http://www.w3.org/1999/xlink" contentStyleType="text/css" data-diagram-type="CLASS" height="580px" preserveAspectRatio="none" style="width:318px;height:580px;background:#FFFFFF;" version="1.1" viewBox="0 0 318 580" width="318px" zoomAndPan="magnify"><defs/><g><!--class App--><g class="entity" data-qualified-name="App" data-source-line="5" id="ent0002"><rect fill="#F1F1F1" height="83.2188" rx="2.5" ry="2.5" style="stroke:#181818;stroke-width:0.5;" width="83.5791" x="111.5" y="7"/><ellipse cx="138.501" cy="23" fill="#ADD1B2" rx="11" ry="11" style="stroke:#181818;stroke-width:1;"/><path d="M141.2667,18.875 Q141.4229,18.6563 141.6104,18.5469 Q141.7979,18.4375 142.0167,18.4375 Q142.3917,18.4375 142.626,18.7031 Q142.8604,18.9531 142.8604,19.5625 L142.8604,21.0156 Q142.8604,21.625 142.626,21.8906 Q142.3917,22.1563 142.0167,22.1563 Q141.6729,22.1563 141.4698,21.9531 Q141.2667,21.7656 141.1573,21.25 Q141.1104,20.8906 140.9229,20.7031 Q140.5948,20.3281 139.9854,20.1094 Q139.376,19.8906 138.751,19.8906 Q137.9854,19.8906 137.3448,20.2188 Q136.7198,20.5469 136.2198,21.2969 Q135.7354,22.0469 135.7354,23.0781 L135.7354,24.1719 Q135.7354,25.4063 136.626,26.2344 Q137.5167,27.0469 139.1104,27.0469 Q140.0479,27.0469 140.7042,26.7969 Q141.0948,26.6406 141.5167,26.2031 Q141.7823,25.9375 141.9229,25.8594 Q142.0792,25.7813 142.2823,25.7813 Q142.6104,25.7813 142.8604,26.0469 Q143.126,26.2969 143.126,26.6406 Q143.126,26.9844 142.7823,27.3906 Q142.2823,27.9688 141.4854,28.2969 Q140.4073,28.75 139.1104,28.75 Q137.5948,28.75 136.3917,28.125 Q135.4073,27.625 134.7198,26.5625 Q134.0323,25.4844 134.0323,24.2031 L134.0323,23.0469 Q134.0323,21.7188 134.6417,20.5781 Q135.2667,19.4219 136.3604,18.8125 Q137.4542,18.1875 138.6885,18.1875 Q139.4229,18.1875 140.0635,18.3594 Q140.7198,18.5156 141.2667,18.875 Z " fill="#000000"/><text fill="#000000" font-family="sans-serif" font-size="14" lengthAdjust="spacing" textLength="24.9102" x="155.1679" y="28.7285">App</text><line style="stroke:#181818;stroke-width:0.5;" x1="112.5" x2="194.0791" y1="39" y2="39"/><line style="stroke:#181818;stroke-width:0.5;" x1="112.5" x2="194.0791" y1="47" y2="47"/><g data-visibility-modifier="PUBLIC_METHOD"><ellipse cx="122.5" cy="61.3047" fill="#84BE84" rx="3" ry="3" style="stroke:#038048;stroke-width:1;"/></g><text fill="#000000" font-family="sans-serif" font-size="14" lengthAdjust="spacing" textLength="51.3652" x="131.5" y="65.5332">upload()</text><g data-visibility-modifier="PUBLIC_METHOD"><ellipse cx="122.5" cy="78.9141" fill="#84BE84" rx="3" ry="3" style="stroke:#038048;stroke-width:1;"/></g><text fill="#000000" font-family="sans-serif" font-size="14" lengthAdjust="spacing" textLength="57.5791" x="131.5" y="83.1426">analyze()</text></g><!--class Engine--><g class="entity" data-qualified-name="Engine" data-source-line="9" id="ent0003"><rect fill="#F1F1F1" height="83.2188" rx="2.5" ry="2.5" style="stroke:#181818;stroke-width:0.5;" width="164.5166" x="71" y="168"/><ellipse cx="127.2119" cy="184" fill="#ADD1B2" rx="11" ry="11" style="stroke:#181818;stroke-width:1;"/><path d="M129.9775,179.875 Q130.1338,179.6563 130.3213,179.5469 Q130.5088,179.4375 130.7275,179.4375 Q131.1025,179.4375 131.3369,179.7031 Q131.5713,179.9531 131.5713,180.5625 L131.5713,182.0156 Q131.5713,182.625 131.3369,182.8906 Q131.1025,183.1563 130.7275,183.1563 Q130.3838,183.1563 130.1807,182.9531 Q129.9775,182.7656 129.8682,182.25 Q129.8213,181.8906 129.6338,181.7031 Q129.3057,181.3281 128.6963,181.1094 Q128.0869,180.8906 127.4619,180.8906 Q126.6963,180.8906 126.0557,181.2188 Q125.4307,181.5469 124.9307,182.2969 Q124.4463,183.0469 124.4463,184.0781 L124.4463,185.1719 Q124.4463,186.4063 125.3369,187.2344 Q126.2275,188.0469 127.8213,188.0469 Q128.7588,188.0469 129.415,187.7969 Q129.8057,187.6406 130.2275,187.2031 Q130.4932,186.9375 130.6338,186.8594 Q130.79,186.7813 130.9932,186.7813 Q131.3213,186.7813 131.5713,187.0469 Q131.8369,187.2969 131.8369,187.6406 Q131.8369,187.9844 131.4932,188.3906 Q130.9932,188.9688 130.1963,189.2969 Q129.1182,189.75 127.8213,189.75 Q126.3057,189.75 125.1025,189.125 Q124.1182,188.625 123.4307,187.5625 Q122.7432,186.4844 122.7432,185.2031 L122.7432,184.0469 Q122.7432,182.7188 123.3525,181.5781 Q123.9775,180.4219 125.0713,179.8125 Q126.165,179.1875 127.3994,179.1875 Q128.1338,179.1875 128.7744,179.3594 Q129.4307,179.5156 129.9775,179.875 Z " fill="#000000"/><text fill="#000000" font-family="sans-serif" font-size="14" lengthAdjust="spacing" textLength="43.5928" x="147.7119" y="189.7285">Engine</text><line style="stroke:#181818;stroke-width:0.5;" x1="72" x2="234.5166" y1="200" y2="200"/><line style="stroke:#181818;stroke-width:0.5;" x1="72" x2="234.5166" y1="208" y2="208"/><g data-visibility-modifier="PUBLIC_METHOD"><ellipse cx="82" cy="222.3047" fill="#84BE84" rx="3" ry="3" style="stroke:#038048;stroke-width:1;"/></g><text fill="#000000" font-family="sans-serif" font-size="14" lengthAdjust="spacing" textLength="101.9375" x="91" y="226.5332">scan_code(files)</text><g data-visibility-modifier="PUBLIC_METHOD"><ellipse cx="82" cy="239.9141" fill="#84BE84" rx="3" ry="3" style="stroke:#038048;stroke-width:1;"/></g><text fill="#000000" font-family="sans-serif" font-size="14" lengthAdjust="spacing" textLength="138.5166" x="91" y="244.1426">build_prompt(findings)</text></g><!--class LLMClient--><g class="entity" data-qualified-name="LLMClient" data-source-line="13" id="ent0004"><rect fill="#F1F1F1" height="83.2188" rx="2.5" ry="2.5" style="stroke:#181818;stroke-width:0.5;" width="123.2617" x="7" y="329"/><ellipse cx="34.7055" cy="345" fill="#ADD1B2" rx="11" ry="11" style="stroke:#181818;stroke-width:1;"/><path d="M37.4711,340.875 Q37.6273,340.6563 37.8148,340.5469 Q38.0023,340.4375 38.2211,340.4375 Q38.5961,340.4375 38.8305,340.7031 Q39.0648,340.9531 39.0648,341.5625 L39.0648,343.0156 Q39.0648,343.625 38.8305,343.8906 Q38.5961,344.1563 38.2211,344.1563 Q37.8773,344.1563 37.6742,343.9531 Q37.4711,343.7656 37.3617,343.25 Q37.3148,342.8906 37.1273,342.7031 Q36.7992,342.3281 36.1898,342.1094 Q35.5805,341.8906 34.9555,341.8906 Q34.1898,341.8906 33.5492,342.2188 Q32.9242,342.5469 32.4242,343.2969 Q31.9398,344.0469 31.9398,345.0781 L31.9398,346.1719 Q31.9398,347.4063 32.8305,348.2344 Q33.7211,349.0469 35.3148,349.0469 Q36.2523,349.0469 36.9086,348.7969 Q37.2992,348.6406 37.7211,348.2031 Q37.9867,347.9375 38.1273,347.8594 Q38.2836,347.7813 38.4867,347.7813 Q38.8148,347.7813 39.0648,348.0469 Q39.3305,348.2969 39.3305,348.6406 Q39.3305,348.9844 38.9867,349.3906 Q38.4867,349.9688 37.6898,350.2969 Q36.6117,350.75 35.3148,350.75 Q33.7992,350.75 32.5961,350.125 Q31.6117,349.625 30.9242,348.5625 Q30.2367,347.4844 30.2367,346.2031 L30.2367,345.0469 Q30.2367,343.7188 30.8461,342.5781 Q31.4711,341.4219 32.5648,340.8125 Q33.6586,340.1875 34.893,340.1875 Q35.6273,340.1875 36.268,340.3594 Q36.9242,340.5156 37.4711,340.875 Z " fill="#000000"/><text fill="#000000" font-family="sans-serif" font-size="14" lengthAdjust="spacing" textLength="63.0273" x="51.5289" y="350.7285">LLMClient</text><line style="stroke:#181818;stroke-width:0.5;" x1="8" x2="129.2617" y1="361" y2="361"/><line style="stroke:#181818;stroke-width:0.5;" x1="8" x2="129.2617" y1="369" y2="369"/><g data-visibility-modifier="PUBLIC_METHOD"><ellipse cx="18" cy="383.3047" fill="#84BE84" rx="3" ry="3" style="stroke:#038048;stroke-width:1;"/></g><text fill="#000000" font-family="sans-serif" font-size="14" lengthAdjust="spacing" textLength="97.2617" x="27" y="387.5332">explain(prompt)</text><g data-visibility-modifier="PUBLIC_METHOD"><ellipse cx="18" cy="400.9141" fill="#84BE84" rx="3" ry="3" style="stroke:#038048;stroke-width:1;"/></g><text fill="#000000" font-family="sans-serif" font-size="14" lengthAdjust="spacing" textLength="74.6963" x="27" y="405.1426">embed(text)</text></g><!--class NIMClient--><g class="entity" data-qualified-name="NIMClient" data-source-line="17" id="ent0005"><rect fill="#F1F1F1" height="83.2188" rx="2.5" ry="2.5" style="stroke:#181818;stroke-width:0.5;" width="123.2617" x="7" y="490"/><ellipse cx="35.413" cy="506" fill="#ADD1B2" rx="11" ry="11" style="stroke:#181818;stroke-width:1;"/><path d="M38.1786,501.875 Q38.3349,501.6563 38.5224,501.5469 Q38.7099,501.4375 38.9286,501.4375 Q39.3036,501.4375 39.538,501.7031 Q39.7724,501.9531 39.7724,502.5625 L39.7724,504.0156 Q39.7724,504.625 39.538,504.8906 Q39.3036,505.1563 38.9286,505.1563 Q38.5849,505.1563 38.3817,504.9531 Q38.1786,504.7656 38.0692,504.25 Q38.0224,503.8906 37.8349,503.7031 Q37.5067,503.3281 36.8974,503.1094 Q36.288,502.8906 35.663,502.8906 Q34.8974,502.8906 34.2567,503.2188 Q33.6317,503.5469 33.1317,504.2969 Q32.6474,505.0469 32.6474,506.0781 L32.6474,507.1719 Q32.6474,508.4063 33.538,509.2344 Q34.4286,510.0469 36.0224,510.0469 Q36.9599,510.0469 37.6161,509.7969 Q38.0067,509.6406 38.4286,509.2031 Q38.6942,508.9375 38.8349,508.8594 Q38.9911,508.7813 39.1942,508.7813 Q39.5224,508.7813 39.7724,509.0469 Q40.038,509.2969 40.038,509.6406 Q40.038,509.9844 39.6942,510.3906 Q39.1942,510.9688 38.3974,511.2969 Q37.3192,511.75 36.0224,511.75 Q34.5067,511.75 33.3036,511.125 Q32.3192,510.625 31.6317,509.5625 Q30.9442,508.4844 30.9442,507.2031 L30.9442,506.0469 Q30.9442,504.7188 31.5536,503.5781 Q32.1786,502.4219 33.2724,501.8125 Q34.3661,501.1875 35.6005,501.1875 Q36.3349,501.1875 36.9755,501.3594 Q37.6317,501.5156 38.1786,501.875 Z " fill="#000000"/><text fill="#000000" font-family="sans-serif" font-size="14" lengthAdjust="spacing" textLength="61.4551" x="52.3937" y="511.7285">NIMClient</text><line style="stroke:#181818;stroke-width:0.5;" x1="8" x2="129.2617" y1="522" y2="522"/><line style="stroke:#181818;stroke-width:0.5;" x1="8" x2="129.2617" y1="530" y2="530"/><g data-visibility-modifier="PUBLIC_METHOD"><ellipse cx="18" cy="544.3047" fill="#84BE84" rx="3" ry="3" style="stroke:#038048;stroke-width:1;"/></g><text fill="#000000" font-family="sans-serif" font-size="14" lengthAdjust="spacing" textLength="97.2617" x="27" y="548.5332">explain(prompt)</text><g data-visibility-modifier="PUBLIC_METHOD"><ellipse cx="18" cy="561.9141" fill="#84BE84" rx="3" ry="3" style="stroke:#038048;stroke-width:1;"/></g><text fill="#000000" font-family="sans-serif" font-size="14" lengthAdjust="spacing" textLength="74.6963" x="27" y="566.1426">embed(text)</text></g><!--class Persistence--><g class="entity" data-qualified-name="Persistence" data-source-line="21" id="ent0006"><rect fill="#F1F1F1" height="83.2188" rx="2.5" ry="2.5" style="stroke:#181818;stroke-width:0.5;" width="145.8271" x="165.5" y="329"/><ellipse cx="198.8072" cy="345" fill="#ADD1B2" rx="11" ry="11" style="stroke:#181818;stroke-width:1;"/><path d="M201.5728,340.875 Q201.7291,340.6563 201.9166,340.5469 Q202.1041,340.4375 202.3228,340.4375 Q202.6978,340.4375 202.9322,340.7031 Q203.1666,340.9531 203.1666,341.5625 L203.1666,343.0156 Q203.1666,343.625 202.9322,343.8906 Q202.6978,344.1563 202.3228,344.1563 Q201.9791,344.1563 201.7759,343.9531 Q201.5728,343.7656 201.4634,343.25 Q201.4166,342.8906 201.2291,342.7031 Q200.9009,342.3281 200.2916,342.1094 Q199.6822,341.8906 199.0572,341.8906 Q198.2916,341.8906 197.6509,342.2188 Q197.0259,342.5469 196.5259,343.2969 Q196.0416,344.0469 196.0416,345.0781 L196.0416,346.1719 Q196.0416,347.4063 196.9322,348.2344 Q197.8228,349.0469 199.4166,349.0469 Q200.3541,349.0469 201.0103,348.7969 Q201.4009,348.6406 201.8228,348.2031 Q202.0884,347.9375 202.2291,347.8594 Q202.3853,347.7813 202.5884,347.7813 Q202.9166,347.7813 203.1666,348.0469 Q203.4322,348.2969 203.4322,348.6406 Q203.4322,348.9844 203.0884,349.3906 Q202.5884,349.9688 201.7916,350.2969 Q200.7134,350.75 199.4166,350.75 Q197.9009,350.75 196.6978,350.125 Q195.7134,349.625 195.0259,348.5625 Q194.3384,347.4844 194.3384,346.2031 L194.3384,345.0469 Q194.3384,343.7188 194.9478,342.5781 Q195.5728,341.4219 196.6666,340.8125 Q197.7603,340.1875 198.9947,340.1875 Q199.7291,340.1875 200.3697,340.3594 Q201.0259,340.5156 201.5728,340.875 Z " fill="#000000"/><text fill="#000000" font-family="sans-serif" font-size="14" lengthAdjust="spacing" textLength="73.1445" x="216.8754" y="350.7285">Persistence</text><line style="stroke:#181818;stroke-width:0.5;" x1="166.5" x2="310.3271" y1="361" y2="361"/><line style="stroke:#181818;stroke-width:0.5;" x1="166.5" x2="310.3271" y1="369" y2="369"/><g data-visibility-modifier="PUBLIC_METHOD"><ellipse cx="176.5" cy="383.3047" fill="#84BE84" rx="3" ry="3" style="stroke:#038048;stroke-width:1;"/></g><text fill="#000000" font-family="sans-serif" font-size="14" lengthAdjust="spacing" textLength="119.8271" x="185.5" y="387.5332">save_report(report)</text><g data-visibility-modifier="PUBLIC_METHOD"><ellipse cx="176.5" cy="400.9141" fill="#84BE84" rx="3" ry="3" style="stroke:#038048;stroke-width:1;"/></g><text fill="#000000" font-family="sans-serif" font-size="14" lengthAdjust="spacing" textLength="77.793" x="185.5" y="405.1426">list_reports()</text></g><!--link Engine to LLMClient--><g class="link" data-entity-1="ent0003" data-entity-2="ent0004" data-link-type="dependency" data-source-line="26" id="lnk7"><path codeLine="26" d="M131.83,251.03 C119.09,274.86 105.8695,299.6091 93.1095,323.4691" fill="none" id="Engine-to-LLMClient" style="stroke:#181818;stroke-width:1;"/><polygon fill="#181818" points="90.28,328.76,98.0516,322.71,92.6379,324.3509,90.997,318.9373,90.28,328.76" style="stroke:#181818;stroke-width:1;"/><text fill="#000000" font-family="sans-serif" font-size="13" lengthAdjust="spacing" textLength="27.46" x="115.5" y="295.4951">uses</text></g><!--reverse link LLMClient to NIMClient--><g class="link" data-entity-1="ent0004" data-entity-2="ent0005" data-link-type="extension" data-source-line="27" id="lnk8"><path codeLine="27" d="M68.5,430.03 C68.5,453.86 68.5,465.9 68.5,489.76" fill="none" id="LLMClient-backto-NIMClient" style="stroke:#181818;stroke-width:1;"/><polygon fill="none" points="68.5,412.03,62.5,430.03,74.5,430.03,68.5,412.03" style="stroke:#181818;stroke-width:1;"/><text fill="#000000" font-family="sans-serif" font-size="13" lengthAdjust="spacing" textLength="88.1563" x="69.5" y="456.4951">implementation</text></g><!--link Engine to Persistence--><g class="link" data-entity-1="ent0003" data-entity-2="ent0006" data-link-type="dependency" data-source-line="28" id="lnk9"><path codeLine="28" d="M175.17,251.03 C187.91,274.86 201.1305,299.6091 213.8905,323.4691" fill="none" id="Engine-to-Persistence" style="stroke:#181818;stroke-width:1;"/><polygon fill="#181818" points="216.72,328.76,216.003,318.9373,214.3621,324.3509,208.9484,322.71,216.72,328.76" style="stroke:#181818;stroke-width:1;"/><text fill="#000000" font-family="sans-serif" font-size="13" lengthAdjust="spacing" textLength="102.9526" x="199.5" y="295.4951">persists -&gt; Report</text></g><!--link App to Engine--><g class="link" data-entity-1="ent0002" data-entity-2="ent0003" data-link-type="dependency" data-source-line="29" id="lnk10"><path codeLine="29" d="M153.5,90.03 C153.5,113.86 153.5,137.9 153.5,161.76" fill="none" id="App-to-Engine" style="stroke:#181818;stroke-width:1;"/><polygon fill="#181818" points="153.5,167.76,157.5,158.76,153.5,162.76,149.5,158.76,153.5,167.76" style="stroke:#181818;stroke-width:1;"/><text fill="#000000" font-family="sans-serif" font-size="13" lengthAdjust="spacing" textLength="56.3799" x="154.5" y="134.4951">delegates</text></g><?plantuml-src fL5BQyCm3BxdL_ZeCLBQ7dO8Op1A3uEsZFs1uDfQC2YoYPpIxl7VfoOkJSup-25_3qcsHSEiNcDKtuMIyTX73CRfXp4oPF3o1KFuAzCEz2qrdk2cO6keji61_lG8d9N7tgEhOnVQc0GWvwdXkSrkjz-W1qet9pX7D9xqgCf6q1x1wGJdD5SVtlwZVeUEFISWU-_3dA3k88OkwN7B7YZ4371-2Ldo8vJbowIHIlKCBEZzwlcdB2V5Ligt4Q6Liqa-qDnfMbQbuXYn4kHZo2_iwrzTgLbLAGS8ZKcILj2YM2tMo_NJOlK7?></g></svg>