<?plantuml 1.2026.1?><svg xmlns="http://www.w3.org/2000/svg" xmlns:xlink="http://www.w3.org/1999/xlink" contentStyleType="text/css" data-diagram-type="DESCRIPTION" height="714px" preserveAspectRatio="none" style="width:497px;height:714px;background:#FFFFFF;" version="1.1" viewBox="0 0 497 714" width="497px" zoomAndPan="magnify"><defs/><g><!--cluster Server--><g class="cluster" data-qualified-name="Server" data-source-line="2" id="ent0003"><polygon fill="none" points="16,128,26,118,339,118,339,564,329,574,16,574,16,128" style="stroke:#181818;stroke-width:1;"/><line style="stroke:#181818;stroke-width:1;" x1="329" x2="339" y1="128" y2="118"/><line style="stroke:#181818;stroke-width:1;" x1="16" x2="329" y1="128" y2="128"/><line style="stroke:#181818;stroke-width:1;" x1="329" x2="329" y1="128" y2="574"/><text fill="#000000" font-family="sans-serif" font-size="14" font-weight="bold" lengthAdjust="spacing" textLength="145.4893" x="100.7554" y="145.5332">Server VM / Container</text></g><!--entity App--><g class="entity" data-qualified-name="Server.App" data-source-line="3" id="ent0004"><rect fill="#F1F1F1" height="47.6094" rx="2.5" ry="2.5" style="stroke:#181818;stroke-width:0.5;" width="118.5928" x="120.5" y="159"/><rect fill="#F1F1F1" height="10" style="stroke:#181818;stroke-width:0.5;" width="15" x="219.0928" y="164"/><rect fill="#F1F1F1" height="2" style="stroke:#181818;stroke-width:0.5;" width="4" x="217.0928" y="166"/><rect fill="#F1F1F1" height="2" style="stroke:#181818;stroke-width:0.5;" width="4" x="217.0928" y="170"/><text fill="#000000" font-family="sans-serif" font-size="14" lengthAdjust="spacing" textLength="78.5928" x="135.5" y="193.5332">FastAPI App</text></g><!--entity Engine--><g class="entity" data-qualified-name="Server.Engine" data-source-line="4" id="ent0005"><rect fill="#F1F1F1" height="47.6094" rx="2.5" ry="2.5" style="stroke:#181818;stroke-width:0.5;" width="131.8545" x="32" y="271.5"/><rect fill="#F1F1F1" height="10" style="stroke:#181818;stroke-width:0.5;" width="15" x="143.8545" y="276.5"/><rect fill="#F1F1F1" height="2" style="stroke:#181818;stroke-width:0.5;" width="4" x="141.8545" y="278.5"/><rect fill="#F1F1F1" height="2" style="stroke:#181818;stroke-width:0.5;" width="4" x="141.8545" y="282.5"/><text fill="#000000" font-family="sans-serif" font-size="14" lengthAdjust="spacing" textLength="91.8545" x="47" y="306.0332">Stage2 Engine</text></g><!--entity Reasoner--><g class="entity" data-qualified-name="Server.Reasoner" data-source-line="5" id="ent0006"><rect fill="#F1F1F1" height="47.6094" rx="2.5" ry="2.5" style="stroke:#181818;stroke-width:0.5;" width="100.7031" x="132.5" y="384"/><rect fill="#F1F1F1" height="10" style="stroke:#181818;stroke-width:0.5;" width="15" x="213.2031" y="389"/><rect fill="#F1F1F1" height="2" style="stroke:#181818;stroke-width:0.5;" width="4" x="211.2031" y="391"/><rect fill="#F1F1F1" height="2" style="stroke:#181818;stroke-width:0.5;" width="4" x="211.2031" y="395"/><text fill="#000000" font-family="sans-serif" font-size="14" lengthAdjust="spacing" textLength="60.7031" x="147.5" y="418.5332">Reasoner</text></g><!--entity LLMClient--><g class="entity" data-qualified-name="Server.LLMClient" data-source-line="6" id="ent0007"><rect fill="#F1F1F1" height="47.6094" rx="2.5" ry="2.5" style="stroke:#181818;stroke-width:0.5;" width="103.0273" x="131.5" y="510"/><rect fill="#F1F1F1" height="10" style="stroke:#181818;stroke-width:0.5;" width="15" x="214.5273" y="515"/><rect fill="#F1F1F1" height="2" style="stroke:#181818;stroke-width:0.5;" width="4" x="212.5273" y="517"/><rect fill="#F1F1F1" height="2" style="stroke:#181818;stroke-width:0.5;" width="4" x="212.5273" y="521"/><text fill="#000000" font-family="sans-serif" font-size="14" lengthAdjust="spacing" textLength="63.0273" x="146.5" y="544.5332">LLMClient</text></g><!--entity DB--><g class="entity" data-qualified-name="Server.DB" data-source-line="7" id="ent0008"><path d="M199.5,270.5 L199.5,320.7188 A2.5,2.5 0 0 0 202,323.2188 L320.4961,323.2188 A2.5,2.5 0 0 0 322.9961,320.7188 L322.9961,278 L312.9961,268 L202,268 A2.5,2.5 0 0 0 199.5,270.5" fill="#F1F1F1" style="stroke:#181818;stroke-width:0.5;"/><path d="M312.9961,268 L312.9961,275.5 A2.5,2.5 0 0 0 315.4961,278 L322.9961,278" fill="#F1F1F1" style="stroke:#181818;stroke-width:0.5;"/><text fill="#000000" font-family="sans-serif" font-size="14" lengthAdjust="spacing" textLength="66.1377" x="209.5" y="292.5332">SQLite DB</text><text fill="#000000" font-family="sans-serif" font-size="14" lengthAdjust="spacing" textLength="103.4961" x="209.5" y="310.1426">(data/reports.db)</text></g><!--entity Browser--><g class="entity" data-qualified-name="Browser" data-source-line="1" id="ent0002"><polygon fill="#F1F1F1" points="114.5,16,124.5,6,245.5273,6,245.5273,43.6094,235.5273,53.6094,114.5,53.6094,114.5,16" style="stroke:#181818;stroke-width:0.5;"/><line style="stroke:#181818;stroke-width:0.5;" x1="235.5273" x2="245.5273" y1="16" y2="6"/><line style="stroke:#181818;stroke-width:0.5;" x1="114.5" x2="235.5273" y1="16" y2="16"/><line style="stroke:#181818;stroke-width:0.5;" x1="235.5273" x2="235.5273" y1="16" y2="53.6094"/><text fill="#000000" font-family="sans-serif" font-size="14" lengthAdjust="spacing" textLength="91.0273" x="129.5" y="40.5332">Client Browser</text></g><!--entity Inference--><g class="entity" data-qualified-name="Inference" data-source-line="9" id="ent0009"><path d="M106.3557,646.4724 C109.5483,641.7336 113.5146,640.7368 116.9475,646.2234 C119.5905,641.5891 123.0972,640.4593 127.1603,644.5638 C130.7381,639.0222 135.5099,637.1398 140.1168,643.4376 C141.5151,638.293 146.295,636.5464 150.101,640.9092 C152.5638,634.7871 157.1712,634.8896 161.0657,639.438 C163.7672,634.9081 169.185,634.0614 172.1343,639.153 C174.3685,633.1747 179.6676,631.7964 184.0948,636.7548 C188.3059,631.5111 192.8813,632.7812 195.7502,638.2194 C200.464,632.6086 205.8862,635.247 207.7008,641.2125 C211.5578,636.967 215.1652,637.0589 217.6706,642.5907 C221.0644,636.7282 224.5723,637.3366 228.6275,641.8953 C233.9469,636.1407 239.0934,639.1232 241.0271,645.3881 C244.5691,640.2065 248.5337,641.0128 251.5924,645.8955 C255.0068,641.0181 260.2776,641.0467 263.3328,646.3114 C270.734,649.0407 271.6343,652.965 266.8734,659.0696 C273.57,660.0119 275.8407,666.1062 271.7293,671.3293 C276.1561,677.1904 274.3903,683.2947 266.4154,683.9226 C271.2008,690.0085 269.0414,693.7879 262.6981,696.6143 C259.236,703.0483 254.5334,703.4024 250.6713,696.9889 C248.4858,702.7133 244.6763,702.0764 240.9929,698.5572 C237.0919,704.1739 233.2168,703.9859 229.2588,698.6181 C225.671,703.31 220.4258,703.0974 217.3925,697.9495 C214.8234,704.627 209.8507,705.3635 205.5411,699.6087 C203.5527,705.3457 199.0095,705.6573 195.6082,700.9527 C191.9675,707.1842 187.7659,706.8709 183.8565,701.2184 C179.7596,706.2476 174.7883,705.1695 172.3849,699.4166 C169.957,705.0504 166.6109,705.5809 162.7275,700.7613 C158.5515,705.8602 153.3871,705.808 150.751,699.1877 C147.7232,703.2516 142.8112,703.4827 140.2928,698.5927 C135.7237,703.3208 131.4138,703.6957 128.6539,696.7837 C124.5354,702.1046 119.2879,702.7912 115.9748,695.9445 C112.8227,701.4844 109.6911,701.0938 106.0612,696.4077 C98.4685,694.0761 99.2278,687.9424 103.9745,683.6003 C98.542,679.7011 98.7466,674.9989 104.3108,671.4028 C98.3767,668.0181 98.6187,662.1971 103.9663,658.5109 C99.2875,654.0994 100.3404,648.7613 106.3557,646.4724" fill="#F1F1F1" style="stroke:#181818;stroke-width:0.5;"/><text fill="#000000" font-family="sans-serif" font-size="14" lengthAdjust="spacing" textLength="143.1582" x="111.5" y="667.5332">NVIDIA Integrate / NIM</text><text fill="#000000" font-family="sans-serif" font-size="14" lengthAdjust="spacing" textLength="87.9307" x="111.5" y="685.1426">or SageMaker</text></g><!--entity KB--><g class="entity" data-qualified-name="KB" data-source-line="10" id="ent0010"><path d="M355,520.5 C355,510.5 417.9067,510.5 417.9067,510.5 C417.9067,510.5 480.8135,510.5 480.8135,520.5 L480.8135,547.1094 C480.8135,557.1094 417.9067,557.1094 417.9067,557.1094 C417.9067,557.1094 355,557.1094 355,547.1094 L355,520.5" fill="#F1F1F1" style="stroke:#181818;stroke-width:0.5;"/><path d="M355,520.5 C355,530.5 417.9067,530.5 417.9067,530.5 C417.9067,530.5 480.8135,530.5 480.8135,520.5" fill="none" style="stroke:#181818;stroke-width:0.5;"/><text fill="#000000" font-family="sans-serif" font-size="14" lengthAdjust="spacing" textLength="105.8135" x="365" y="549.0332">FAISS / KB store</text></g><!--link Browser to App--><g class="link" data-entity-1="ent0002" data-entity-2="ent0004" data-link-type="dependency" data-source-line="11" id="lnk11"><path d="M180,54.26 C180,82.72 180,124.6 180,152.96" fill="none" id="Browser-to-App" style="stroke:#181818;stroke-width:1;"/><polygon fill="#181818" points="180,158.96,184,149.96,180,153.96,176,149.96,180,158.96" style="stroke:#181818;stroke-width:1;"/><text fill="#000000" font-family="sans-serif" font-size="13" lengthAdjust="spacing" textLength="51.27" x="181" y="98.4951">HTTP(S)</text></g><!--link App to Engine--><g class="link" data-entity-1="ent0004" data-entity-2="ent0005" data-link-type="dependency" data-source-line="12" id="lnk12"><path d="M162.81,207.16 C148.82,226.02 132.7358,247.702 118.7458,266.552" fill="none" id="App-to-Engine" style="stroke:#181818;stroke-width:1;"/><polygon fill="#181818" points="115.17,271.37,123.7458,266.5268,118.1499,267.355,117.3217,261.7591,115.17,271.37" style="stroke:#181818;stroke-width:1;"/></g><!--link Engine to Reasoner--><g class="link" data-entity-1="ent0005" data-entity-2="ent0006" data-link-type="dependency" data-source-line="13" id="lnk13"><path d="M115.82,319.66 C130.33,338.52 147.0417,360.2643 161.5417,379.1143" fill="none" id="Engine-to-Reasoner" style="stroke:#181818;stroke-width:1;"/><polygon fill="#181818" points="165.2,383.87,162.8831,374.2975,162.1514,379.9069,156.5421,379.1752,165.2,383.87" style="stroke:#181818;stroke-width:1;"/></g><!--link Reasoner to LLMClient--><g class="link" data-entity-1="ent0006" data-entity-2="ent0007" data-link-type="dependency" data-source-line="14" id="lnk14"><path d="M183,432.03 C183,454.17 183,481.44 183,503.67" fill="none" id="Reasoner-to-LLMClient" style="stroke:#181818;stroke-width:1;"/><polygon fill="#181818" points="183,509.67,187,500.67,183,504.67,179,500.67,183,509.67" style="stroke:#181818;stroke-width:1;"/></g><!--link LLMClient to Inference--><g class="link" data-entity-1="ent0007" data-entity-2="ent0009" data-link-type="dependency" data-source-line="15" id="lnk15"><path d="M183,558.12 C183,580.13 183,607.42 183,631.88" fill="none" id="LLMClient-to-Inference" style="stroke:#181818;stroke-width:1;"/><polygon fill="#181818" points="183,637.88,187,628.88,183,632.88,179,628.88,183,637.88" style="stroke:#181818;stroke-width:1;"/><text fill="#000000" font-family="sans-serif" font-size="13" lengthAdjust="spacing" textLength="171.9453" x="184" y="604.4951">REST calls (auth: Bearer key)</text></g><!--link Reasoner to KB--><g class="link" data-entity-1="ent0006" data-entity-2="ent0010" data-link-type="dependency" data-source-line="16" id="lnk16"><path d="M226.65,432.03 C268.99,454.38 327.5434,485.27 369.6734,507.5" fill="none" id="Reasoner-to-KB" style="stroke:#181818;stroke-width:1;"/><polygon fill="#181818" points="374.98,510.3,368.8868,502.5622,370.5578,507.9666,365.1534,509.6377,374.98,510.3" style="stroke:#181818;stroke-width:1;"/><text fill="#000000" font-family="sans-serif" font-size="13" lengthAdjust="spacing" textLength="171.9707" x="315" y="476.4951">retrieve context (embeddings)</text></g><!--link App to DB--><g class="link" data-entity-1="ent0004" data-entity-2="ent0008" data-link-type="dependency" data-source-line="17" id="lnk17"><path d="M196.98,207.16 C209.97,224.88 224.3533,244.5005 237.9333,263.0305" fill="none" id="App-to-DB" style="stroke:#181818;stroke-width:1;"/><polygon fill="#181818" points="241.48,267.87,239.3863,258.2463,238.5244,263.8371,232.9336,262.9752,241.48,267.87" style="stroke:#181818;stroke-width:1;"/></g><?plantuml-src LL3BRi8m4BpxArOv9GUAr6CEbM82gWL152DEN4oof171Zcn3MrNzzphE0-NatV7ixCnALI04Yxf2QO5gzMLG1o3CK1Ff2Hpr0pKSCvZ3GaahAjdp-fzV0f2hMwDaAnIiXB79Za7ID9xbtYc1Mr7YAonbwPGyfIkdh3qAeuPDGpEbR3PPvzvpniwHBbNTEl_OL1OXfISP5iAAkSP6QMjUYdFaHr9A_aXUgti1mVR8KfO0anPBBTpO7BOiEqcbWJk_cRZsNfYye4QP8sarpyAuJQk4SUucrXICLRfBjQQaloJCPc_j7I26zyDX5_A8j5sBzj6xnoDZrg7mw3FTM7byTEEqzqj-W5pKjO5GtErd31I5TW9N_8ccSive31gjhl21xgOkzRU546zdB8fAbkRfCAN_?></g></svg>