<?plantuml 1.2026.1?><svg xmlns="http://www.w3.org/2000/svg" xmlns:xlink="http://www.w3.org/1999/xlink" contentStyleType="text/css" data-diagram-type="CLASS" height="542px" preserveAspectRatio="none" style="width:174px;height:542px;background:#FFFFFF;" version="1.1" viewBox="0 0 174 542" width="174px" zoomAndPan="magnify"><defs/><g><!--class R--><g class="entity" data-qualified-name="R" data-source-line="1" id="ent0002"><rect fill="#F1F1F1" height="118.4375" rx="2.5" ry="2.5" style="stroke:#181818;stroke-width:0.5;" width="160.6064" x="7" y="203"/><ellipse cx="62.043" cy="219" fill="#ADD1B2" rx="11" ry="11" style="stroke:#181818;stroke-width:1;"/><path d="M60.9023,219.7969 L60.9023,222.2969 L65.2305,222.2969 L65.2305,221.375 Q65.2305,220.7656 65.4648,220.5 Q65.7148,220.2344 66.0898,220.2344 Q66.4648,220.2344 66.6992,220.5 Q66.9336,220.7656 66.9336,221.375 L66.9336,224 L58.9336,224 Q58.3086,224 58.043,223.7656 Q57.793,223.5313 57.793,223.1406 Q57.793,222.7656 58.0586,222.5313 Q58.3242,222.2969 58.9336,222.2969 L59.1992,222.2969 L59.1992,215.6406 L58.9336,215.6406 Q58.3086,215.6406 58.043,215.4063 Q57.793,215.1719 57.793,214.7813 Q57.793,214.4063 58.043,214.1719 Q58.3086,213.9375 58.9336,213.9375 L66.5586,213.9375 L66.5586,216.5313 Q66.5586,217.1406 66.3242,217.4063 Q66.1055,217.6563 65.7148,217.6563 Q65.3398,217.6563 65.1055,217.4063 Q64.8711,217.1406 64.8711,216.5313 L64.8711,215.6406 L60.9023,215.6406 L60.9023,218.0938 L62.3867,218.0938 Q62.3867,217.4375 62.5117,217.25 Q62.7773,216.8438 63.2461,216.8438 Q63.6211,216.8438 63.8555,217.1094 Q64.0898,217.3594 64.0898,217.9688 L64.0898,219.9375 Q64.0898,220.4844 63.9648,220.6719 Q63.6992,221.0625 63.2461,221.0625 Q62.7773,221.0625 62.5117,220.6563 Q62.3867,220.4688 62.3867,219.7969 L60.9023,219.7969 Z " fill="#000000"/><text fill="#000000" font-family="sans-serif" font-size="14" lengthAdjust="spacing" textLength="42.0205" x="82.543" y="224.7285">Report</text><line style="stroke:#181818;stroke-width:0.5;" x1="8" x2="166.6064" y1="235" y2="235"/><g data-visibility-modifier="IE_MANDATORY"><ellipse cx="18" cy="249.3047" fill="#000000" rx="3" ry="3" style="stroke:#000000;stroke-width:1;"/></g><text fill="#000000" font-family="sans-serif" font-size="14" lengthAdjust="spacing" textLength="84.793" x="27" y="253.5332">id : INTEGER</text><line style="stroke:#181818;stroke-width:1;" x1="8" x2="166.6064" y1="260.6094" y2="260.6094"/><text fill="#000000" font-family="sans-serif" font-size="14" lengthAdjust="spacing" textLength="118.2686" x="13" y="279.1426">report_type : TEXT</text><text fill="#000000" font-family="sans-serif" font-size="14" lengthAdjust="spacing" textLength="148.6064" x="13" y="296.752">created_at : DATETIME</text><text fill="#000000" font-family="sans-serif" font-size="14" lengthAdjust="spacing" textLength="93.3721" x="13" y="314.3613">content : TEXT</text></g><!--class F--><g class="entity" data-qualified-name="F" data-source-line="8" id="ent0003"><rect fill="#F1F1F1" height="136.0469" rx="2.5" ry="2.5" style="stroke:#181818;stroke-width:0.5;" width="141.1514" x="17" y="399"/><ellipse cx="60.4555" cy="415" fill="#ADD1B2" rx="11" ry="11" style="stroke:#181818;stroke-width:1;"/><path d="M59.3148,415.7969 L59.3148,418.2969 L63.643,418.2969 L63.643,417.375 Q63.643,416.7656 63.8773,416.5 Q64.1273,416.2344 64.5023,416.2344 Q64.8773,416.2344 65.1117,416.5 Q65.3461,416.7656 65.3461,417.375 L65.3461,420 L57.3461,420 Q56.7211,420 56.4555,419.7656 Q56.2055,419.5313 56.2055,419.1406 Q56.2055,418.7656 56.4711,418.5313 Q56.7367,418.2969 57.3461,418.2969 L57.6117,418.2969 L57.6117,411.6406 L57.3461,411.6406 Q56.7211,411.6406 56.4555,411.4063 Q56.2055,411.1719 56.2055,410.7813 Q56.2055,410.4063 56.4555,410.1719 Q56.7211,409.9375 57.3461,409.9375 L64.9711,409.9375 L64.9711,412.5313 Q64.9711,413.1406 64.7367,413.4063 Q64.518,413.6563 64.1273,413.6563 Q63.7523,413.6563 63.518,413.4063 Q63.2836,413.1406 63.2836,412.5313 L63.2836,411.6406 L59.3148,411.6406 L59.3148,414.0938 L60.7992,414.0938 Q60.7992,413.4375 60.9242,413.25 Q61.1898,412.8438 61.6586,412.8438 Q62.0336,412.8438 62.268,413.1094 Q62.5023,413.3594 62.5023,413.9688 L62.5023,415.9375 Q62.5023,416.4844 62.3773,416.6719 Q62.1117,417.0625 61.6586,417.0625 Q61.1898,417.0625 60.9242,416.6563 Q60.7992,416.4688 60.7992,415.7969 L59.3148,415.7969 Z " fill="#000000"/><text fill="#000000" font-family="sans-serif" font-size="14" lengthAdjust="spacing" textLength="45.917" x="80.7789" y="420.7285">Finding</text><line style="stroke:#181818;stroke-width:0.5;" x1="18" x2="157.1514" y1="431" y2="431"/><g data-visibility-modifier="IE_MANDATORY"><ellipse cx="28" cy="445.3047" fill="#000000" rx="3" ry="3" style="stroke:#000000;stroke-width:1;"/></g><text fill="#000000" font-family="sans-serif" font-size="14" lengthAdjust="spacing" textLength="84.793" x="37" y="449.5332">id : INTEGER</text><line style="stroke:#181818;stroke-width:1;" x1="18" x2="157.1514" y1="456.6094" y2="456.6094"/><text fill="#000000" font-family="sans-serif" font-size="14" lengthAdjust="spacing" textLength="129.1514" x="23" y="475.1426">report_id : INTEGER</text><text fill="#000000" font-family="sans-serif" font-size="14" lengthAdjust="spacing" textLength="100.3789" x="23" y="492.752">file_path : TEXT</text><text fill="#000000" font-family="sans-serif" font-size="14" lengthAdjust="spacing" textLength="95.6826" x="23" y="510.3613">severity : TEXT</text><text fill="#000000" font-family="sans-serif" font-size="14" lengthAdjust="spacing" textLength="115.1514" x="23" y="527.9707">description : TEXT</text></g><!--class S--><g class="entity" data-qualified-name="S" data-source-line="16" id="ent0004"><rect fill="#F1F1F1" height="118.4375" rx="2.5" ry="2.5" style="stroke:#181818;stroke-width:0.5;" width="160.6064" x="7" y="7"/><ellipse cx="44.1585" cy="23" fill="#ADD1B2" rx="11" ry="11" style="stroke:#181818;stroke-width:1;"/><path d="M43.0179,23.7969 L43.0179,26.2969 L47.346,26.2969 L47.346,25.375 Q47.346,24.7656 47.5804,24.5 Q47.8304,24.2344 48.2054,24.2344 Q48.5804,24.2344 48.8148,24.5 Q49.0492,24.7656 49.0492,25.375 L49.0492,28 L41.0492,28 Q40.4242,28 40.1585,27.7656 Q39.9085,27.5313 39.9085,27.1406 Q39.9085,26.7656 40.1742,26.5313 Q40.4398,26.2969 41.0492,26.2969 L41.3148,26.2969 L41.3148,19.6406 L41.0492,19.6406 Q40.4242,19.6406 40.1585,19.4063 Q39.9085,19.1719 39.9085,18.7813 Q39.9085,18.4063 40.1585,18.1719 Q40.4242,17.9375 41.0492,17.9375 L48.6742,17.9375 L48.6742,20.5313 Q48.6742,21.1406 48.4398,21.4063 Q48.221,21.6563 47.8304,21.6563 Q47.4554,21.6563 47.221,21.4063 Q46.9867,21.1406 46.9867,20.5313 L46.9867,19.6406 L43.0179,19.6406 L43.0179,22.0938 L44.5023,22.0938 Q44.5023,21.4375 44.6273,21.25 Q44.8929,20.8438 45.3617,20.8438 Q45.7367,20.8438 45.971,21.1094 Q46.2054,21.3594 46.2054,21.9688 L46.2054,23.9375 Q46.2054,24.4844 46.0804,24.6719 Q45.8148,25.0625 45.3617,25.0625 Q44.8929,25.0625 44.6273,24.6563 Q44.5023,24.4688 44.5023,23.7969 L43.0179,23.7969 Z " fill="#000000"/><text fill="#000000" font-family="sans-serif" font-size="14" lengthAdjust="spacing" textLength="79.3652" x="63.0827" y="28.7285">UserSession</text><line style="stroke:#181818;stroke-width:0.5;" x1="8" x2="166.6064" y1="39" y2="39"/><g data-visibility-modifier="IE_MANDATORY"><ellipse cx="18" cy="53.3047" fill="#000000" rx="3" ry="3" style="stroke:#000000;stroke-width:1;"/></g><text fill="#000000" font-family="sans-serif" font-size="14" lengthAdjust="spacing" textLength="84.793" x="27" y="57.5332">id : INTEGER</text><line style="stroke:#181818;stroke-width:1;" x1="8" x2="166.6064" y1="64.6094" y2="64.6094"/><text fill="#000000" font-family="sans-serif" font-size="14" lengthAdjust="spacing" textLength="113.5996" x="13" y="83.1426">session_id : TEXT</text><text fill="#000000" font-family="sans-serif" font-size="14" lengthAdjust="spacing" textLength="117.5029" x="13" y="100.752">user_agent : TEXT</text><text fill="#000000" font-family="sans-serif" font-size="14" lengthAdjust="spacing" textLength="148.6064" x="13" y="118.3613">created_at : DATETIME</text></g><!--link R to F--><g class="link" data-entity-1="ent0002" data-entity-2="ent0003" data-link-type="crowfoot" data-source-line="24" id="lnk5"><path codeLine="24" d="M87.5,329.17 C87.5,353.42 87.5,355.74 87.5,380.87" fill="none" id="R-F" style="stroke:#181818;stroke-width:1;"/><line style="stroke:#181818;stroke-width:1;" x1="83.5" x2="91.5" y1="325.17" y2="325.17"/><line style="stroke:#181818;stroke-width:1;" x1="83.5" x2="91.5" y1="328.17" y2="328.17"/><line style="stroke:#181818;stroke-width:1;" x1="87.5" x2="87.5" y1="329.17" y2="321.17"/><line style="stroke:#181818;stroke-width:1;" x1="87.5" x2="93.5" y1="390.87" y2="398.87"/><line style="stroke:#181818;stroke-width:1;" x1="87.5" x2="81.5" y1="390.87" y2="398.87"/><line style="stroke:#181818;stroke-width:1;" x1="87.5" x2="87.5" y1="390.87" y2="398.87"/><ellipse cx="87.5" cy="384.87" fill="none" rx="4" ry="4" style="stroke:#181818;stroke-width:1;"/><text fill="#000000" font-family="sans-serif" font-size="13" lengthAdjust="spacing" textLength="48.4199" x="88.5" y="365.4951">contains</text></g><!--link S to R--><g class="link" data-entity-1="ent0004" data-entity-2="ent0002" data-link-type="crowfoot" data-source-line="25" id="lnk6"><path codeLine="25" d="M87.5,133.21 C87.5,157.76 87.5,160.29 87.5,184.83" fill="none" id="S-R" style="stroke:#181818;stroke-width:1;"/><line style="stroke:#181818;stroke-width:1;" x1="83.5" x2="91.5" y1="129.21" y2="129.21"/><line style="stroke:#181818;stroke-width:1;" x1="83.5" x2="91.5" y1="132.21" y2="132.21"/><line style="stroke:#181818;stroke-width:1;" x1="87.5" x2="87.5" y1="133.21" y2="125.21"/><line style="stroke:#181818;stroke-width:1;" x1="87.5" x2="93.5" y1="194.83" y2="202.83"/><line style="stroke:#181818;stroke-width:1;" x1="87.5" x2="81.5" y1="194.83" y2="202.83"/><line style="stroke:#181818;stroke-width:1;" x1="87.5" x2="87.5" y1="194.83" y2="202.83"/><ellipse cx="87.5" cy="188.83" fill="none" rx="4" ry="4" style="stroke:#181818;stroke-width:1;"/><text fill="#000000" font-family="sans-serif" font-size="13" lengthAdjust="spacing" textLength="42.6309" x="88.5" y="169.4951">creates</text></g><?plantuml-src XP3F2i8m3CRlVOhWKTWBU1Eiua4FNGLlexYe1UbA4uMnxTtjkla7HRmK-lkIV5-2ZYtNC57egy0JC0GA6W4mjINCOBtLSYLL_6TPV4AgAhZs64Kjzph2Gq33M1Q68rlCjTJhZUnvvHWTFmexWQFNqhhIkbCoM_ur-v2EzeA5Dtn-1I2yOUWdFqc9T0ZMiwtSj_sECEH85CKK8VyTWOQo8SCu-nhR2tDws-pN2JeX5BHjbbLDt7EM3cAi8v4_gEffwYLn1m00?></g></svg>