<?plantuml 1.2026.1?><svg xmlns="http://www.w3.org/2000/svg" xmlns:xlink="http://www.w3.org/1999/xlink" contentStyleType="text/css" data-diagram-type="SEQUENCE" height="470px" preserveAspectRatio="none" style="width:645px;height:470px;background:#FFFFFF;" version="1.1" viewBox="0 0 645 470" width="645px" zoomAndPan="magnify"><defs/><g><g class="participant-lifeline" data-entity-uid="part1" data-qualified-name="User" id="part1-lifeline"><g><title>User</title><rect fill="#000000" fill-opacity="0.00000" height="306.1641" width="8" x="18.7793" y="82.6094"/><line style="stroke:#181818;stroke-width:0.5;stroke-dasharray:5,5;" x1="22" x2="22" y1="82.6094" y2="388.7734"/></g></g><g class="participant-lifeline" data-entity-uid="part2" data-qualified-name="Browser" id="part2-lifeline"><g><title>Browser</title><rect fill="#000000" fill-opacity="0.00000" height="306.1641" width="8" x="170.6719" y="82.6094"/><line style="stroke:#181818;stroke-width:0.5;stroke-dasharray:5,5;" x1="173.9995" x2="173.9995" y1="82.6094" y2="388.7734"/></g></g><g class="participant-lifeline" data-entity-uid="part3" data-qualified-name="WebApp" id="part3-lifeline"><g><title>WebApp</title><rect fill="#000000" fill-opacity="0.00000" height="306.1641" width="8" x="276.3281" y="82.6094"/><line style="stroke:#181818;stroke-width:0.5;stroke-dasharray:5,5;" x1="279.48" x2="279.48" y1="82.6094" y2="388.7734"/></g></g><g class="participant-lifeline" data-entity-uid="part4" data-qualified-name="Engine" id="part4-lifeline"><g><title>Engine</title><rect fill="#000000" fill-opacity="0.00000" height="306.1641" width="8" x="394.9844" y="82.6094"/><line style="stroke:#181818;stroke-width:0.5;stroke-dasharray:5,5;" x1="398.188" x2="398.188" y1="82.6094" y2="388.7734"/></g></g><g class="participant-lifeline" data-entity-uid="part5" data-qualified-name="NIM" id="part5-lifeline"><g><title>NIM</title><rect fill="#000000" fill-opacity="0.00000" height="306.1641" width="8" x="558.436" y="82.6094"/><line style="stroke:#181818;stroke-width:0.5;stroke-dasharray:5,5;" x1="561.605" x2="561.605" y1="82.6094" y2="388.7734"/></g></g><g class="participant-lifeline" data-entity-uid="part6" data-qualified-name="DB" id="part6-lifeline"><g><title>DB</title><rect fill="#000000" fill-opacity="0.00000" height="306.1641" width="8" x="606.2671" y="82.6094"/><line style="stroke:#181818;stroke-width:0.5;stroke-dasharray:5,5;" x1="610.2671" x2="610.2671" y1="82.6094" y2="388.7734"/></g></g><g class="participant participant-head" data-entity-uid="part1" data-qualified-name="User" id="part1-head"><text fill="#000000" font-family="sans-serif" font-size="14" lengthAdjust="spacing" textLength="29.5586" x="5" y="79.5332">User</text><ellipse cx="22.7793" cy="13.5" fill="#E2E2F0" rx="8" ry="8" style="stroke:#181818;stroke-width:0.5;"/><path d="M22.7793,21.5 L22.7793,48.5 M9.7793,29.5 L35.7793,29.5 M22.7793,48.5 L9.7793,63.5 M22.7793,48.5 L35.7793,63.5" fill="none" style="stroke:#181818;stroke-width:0.5;"/></g><g class="participant participant-tail" data-entity-uid="part1" data-qualified-name="User" id="part1-tail"><text fill="#000000" font-family="sans-serif" font-size="14" lengthAdjust="spacing" textLength="29.5586" x="5" y="402.3066">User</text><ellipse cx="22.7793" cy="413.8828" fill="#E2E2F0" rx="8" ry="8" style="stroke:#181818;stroke-width:0.5;"/><path d="M22.7793,421.8828 L22.7793,448.8828 M9.7793,429.8828 L35.7793,429.8828 M22.7793,448.8828 L9.7793,463.8828 M22.7793,448.8828 L35.7793,463.8828" fill="none" style="stroke:#181818;stroke-width:0.5;"/></g><g class="participant participant-head" data-entity-uid="part2" data-qualified-name="Browser" id="part2-head"><rect fill="#E2E2F0" height="31.6094" rx="2.5" ry="2.5" style="stroke:#181818;stroke-width:0.5;" width="65.3447" x="141.9995" y="50"/><text fill="#000000" font-family="sans-serif" font-size="14" lengthAdjust="spacing" textLength="51.3447" x="148.9995" y="71.5332">Browser</text></g><g class="participant participant-tail" data-entity-uid="part2" data-qualified-name="Browser" id="part2-tail"><rect fill="#E2E2F0" height="31.6094" rx="2.5" ry="2.5" style="stroke:#181818;stroke-width:0.5;" width="65.3447" x="141.9995" y="387.7734"/><text fill="#000000" font-family="sans-serif" font-size="14" lengthAdjust="spacing" textLength="51.3447" x="148.9995" y="409.3066">Browser</text></g><g class="participant participant-head" data-entity-uid="part3" data-qualified-name="WebApp" id="part3-head"><rect fill="#E2E2F0" height="31.6094" rx="2.5" ry="2.5" style="stroke:#181818;stroke-width:0.5;" width="67.6963" x="246.48" y="50"/><text fill="#000000" font-family="sans-serif" font-size="14" lengthAdjust="spacing" textLength="53.6963" x="253.48" y="71.5332">WebApp</text></g><g class="participant participant-tail" data-entity-uid="part3" data-qualified-name="WebApp" id="part3-tail"><rect fill="#E2E2F0" height="31.6094" rx="2.5" ry="2.5" style="stroke:#181818;stroke-width:0.5;" width="67.6963" x="246.48" y="387.7734"/><text fill="#000000" font-family="sans-serif" font-size="14" lengthAdjust="spacing" textLength="53.6963" x="253.48" y="409.3066">WebApp</text></g><g class="participant participant-head" data-entity-uid="part4" data-qualified-name="Engine" id="part4-head"><rect fill="#E2E2F0" height="31.6094" rx="2.5" ry="2.5" style="stroke:#181818;stroke-width:0.5;" width="57.5928" x="370.188" y="50"/><text fill="#000000" font-family="sans-serif" font-size="14" lengthAdjust="spacing" textLength="43.5928" x="377.188" y="71.5332">Engine</text></g><g class="participant participant-tail" data-entity-uid="part4" data-qualified-name="Engine" id="part4-tail"><rect fill="#E2E2F0" height="31.6094" rx="2.5" ry="2.5" style="stroke:#181818;stroke-width:0.5;" width="57.5928" x="370.188" y="387.7734"/><text fill="#000000" font-family="sans-serif" font-size="14" lengthAdjust="spacing" textLength="43.5928" x="377.188" y="409.3066">Engine</text></g><g class="participant participant-head" data-entity-uid="part5" data-qualified-name="NIM" id="part5-head"><rect fill="#E2E2F0" height="31.6094" rx="2.5" ry="2.5" style="stroke:#181818;stroke-width:0.5;" width="39.6621" x="542.605" y="50"/><text fill="#000000" font-family="sans-serif" font-size="14" lengthAdjust="spacing" textLength="25.6621" x="549.605" y="71.5332">NIM</text></g><g class="participant participant-tail" data-entity-uid="part5" data-qualified-name="NIM" id="part5-tail"><rect fill="#E2E2F0" height="31.6094" rx="2.5" ry="2.5" style="stroke:#181818;stroke-width:0.5;" width="39.6621" x="542.605" y="387.7734"/><text fill="#000000" font-family="sans-serif" font-size="14" lengthAdjust="spacing" textLength="25.6621" x="549.605" y="409.3066">NIM</text></g><g class="participant participant-head" data-entity-uid="part6" data-qualified-name="DB" id="part6-head"><text fill="#000000" font-family="sans-serif" font-size="14" lengthAdjust="spacing" textLength="19.4482" x="597.543" y="79.5332">DB</text><path d="M592.2671,29 C592.2671,19 610.2671,19 610.2671,19 C610.2671,19 628.2671,19 628.2671,29 L628.2671,55 C628.2671,65 610.2671,65 610.2671,65 C610.2671,65 592.2671,65 592.2671,55 L592.2671,29" fill="#E2E2F0" style="stroke:#181818;stroke-width:0.5;"/><path d="M592.2671,29 C592.2671,39 610.2671,39 610.2671,39 C610.2671,39 628.2671,39 628.2671,29" fill="none" style="stroke:#181818;stroke-width:0.5;"/></g><g class="participant participant-tail" data-entity-uid="part6" data-qualified-name="DB" id="part6-tail"><text fill="#000000" font-family="sans-serif" font-size="14" lengthAdjust="spacing" textLength="19.4482" x="597.543" y="402.3066">DB</text><path d="M592.2671,415.3828 C592.2671,405.3828 610.2671,405.3828 610.2671,405.3828 C610.2671,405.3828 628.2671,405.3828 628.2671,415.3828 L628.2671,441.3828 C628.2671,451.3828 610.2671,451.3828 610.2671,451.3828 C610.2671,451.3828 592.2671,451.3828 592.2671,441.3828 L592.2671,415.3828" fill="#E2E2F0" style="stroke:#181818;stroke-width:0.5;"/><path d="M592.2671,415.3828 C592.2671,425.3828 610.2671,425.3828 610.2671,425.3828 C610.2671,425.3828 628.2671,425.3828 628.2671,415.3828" fill="none" style="stroke:#181818;stroke-width:0.5;"/></g><g class="message" data-entity-1="part1" data-entity-2="part2" id="msg1"><polygon fill="#181818" points="162.6719,110.9609,172.6719,114.9609,162.6719,118.9609,166.6719,114.9609" style="stroke:#181818;stroke-width:1;"/><line style="stroke:#181818;stroke-width:1;" x1="22.7793" x2="168.6719" y1="114.9609" y2="114.9609"/><text fill="#000000" font-family="sans-serif" font-size="13" lengthAdjust="spacing" textLength="127.8926" x="29.7793" y="110.1045">select files and submit</text></g><g class="message" data-entity-1="part2" data-entity-2="part3" id="msg2"><polygon fill="#181818" points="268.3281,141.3125,278.3281,145.3125,268.3281,149.3125,272.3281,145.3125" style="stroke:#181818;stroke-width:1;"/><line style="stroke:#181818;stroke-width:1;" x1="174.6719" x2="274.3281" y1="145.3125" y2="145.3125"/><text fill="#000000" font-family="sans-serif" font-size="13" lengthAdjust="spacing" textLength="81.6563" x="181.6719" y="140.4561">POST /upload</text></g><g class="message" data-entity-1="part3" data-entity-2="part4" id="msg3"><polygon fill="#181818" points="386.9844,171.6641,396.9844,175.6641,386.9844,179.6641,390.9844,175.6641" style="stroke:#181818;stroke-width:1;"/><line style="stroke:#181818;stroke-width:1;" x1="280.3281" x2="392.9844" y1="175.6641" y2="175.6641"/><text fill="#000000" font-family="sans-serif" font-size="13" lengthAdjust="spacing" textLength="94.6563" x="287.3281" y="170.8076">scan_code(files)</text></g><g class="message" data-entity-1="part4" data-entity-2="part4" id="msg4"><line style="stroke:#181818;stroke-width:1;" x1="398.9844" x2="440.9844" y1="206.0156" y2="206.0156"/><line style="stroke:#181818;stroke-width:1;" x1="440.9844" x2="440.9844" y1="206.0156" y2="219.0156"/><line style="stroke:#181818;stroke-width:1;" x1="399.9844" x2="440.9844" y1="219.0156" y2="219.0156"/><polygon fill="#181818" points="409.9844,215.0156,399.9844,219.0156,409.9844,223.0156,405.9844,219.0156" style="stroke:#181818;stroke-width:1;"/><text fill="#000000" font-family="sans-serif" font-size="13" lengthAdjust="spacing" textLength="93.1963" x="405.9844" y="201.1592">static_analysis()</text></g><g class="message" data-entity-1="part4" data-entity-2="part5" id="msg5"><polygon fill="#181818" points="550.436,245.3672,560.436,249.3672,550.436,253.3672,554.436,249.3672" style="stroke:#181818;stroke-width:1;"/><line style="stroke:#181818;stroke-width:1;" x1="398.9844" x2="556.436" y1="249.3672" y2="249.3672"/><text fill="#000000" font-family="sans-serif" font-size="13" lengthAdjust="spacing" textLength="139.4517" x="405.9844" y="244.5107">explain(prompt, context)</text></g><g class="message" data-entity-1="part5" data-entity-2="part4" id="msg6"><polygon fill="#181818" points="409.9844,275.7188,399.9844,279.7188,409.9844,283.7188,405.9844,279.7188" style="stroke:#181818;stroke-width:1;"/><line style="stroke:#181818;stroke-width:1;stroke-dasharray:2,2;" x1="403.9844" x2="561.436" y1="279.7188" y2="279.7188"/><text fill="#000000" font-family="sans-serif" font-size="13" lengthAdjust="spacing" textLength="66.498" x="415.9844" y="274.8623">explanation</text></g><g class="message" data-entity-1="part4" data-entity-2="part6" id="msg7"><polygon fill="#181818" points="598.2671,306.0703,608.2671,310.0703,598.2671,314.0703,602.2671,310.0703" style="stroke:#181818;stroke-width:1;"/><line style="stroke:#181818;stroke-width:1;" x1="398.9844" x2="604.2671" y1="310.0703" y2="310.0703"/><text fill="#000000" font-family="sans-serif" font-size="13" lengthAdjust="spacing" textLength="111.2681" x="405.9844" y="305.2139">save_report(report)</text></g><g class="message" data-entity-1="part4" data-entity-2="part3" id="msg8"><polygon fill="#181818" points="291.3281,336.4219,281.3281,340.4219,291.3281,344.4219,287.3281,340.4219" style="stroke:#181818;stroke-width:1;"/><line style="stroke:#181818;stroke-width:1;stroke-dasharray:2,2;" x1="285.3281" x2="397.9844" y1="340.4219" y2="340.4219"/><text fill="#000000" font-family="sans-serif" font-size="13" lengthAdjust="spacing" textLength="31.7891" x="297.3281" y="335.5654">result</text></g><g class="message" data-entity-1="part3" data-entity-2="part2" id="msg9"><polygon fill="#181818" points="185.6719,366.7734,175.6719,370.7734,185.6719,374.7734,181.6719,370.7734" style="stroke:#181818;stroke-width:1;"/><line style="stroke:#181818;stroke-width:1;stroke-dasharray:2,2;" x1="179.6719" x2="279.3281" y1="370.7734" y2="370.7734"/><text fill="#000000" font-family="sans-serif" font-size="13" lengthAdjust="spacing" textLength="65.749" x="191.6719" y="365.917">show result</text></g><?plantuml-src NP3DJiGm38JlUGeVkn8hxZqWKIq73ln8W3XMRceWKjQs4fTTtfvqmqBBoTBCw1lRw4qIl6HAJZ5Py46H3ReaX__QAmtNgYlfXjy3qqgwlxrp8neEc0bsdNCp6xPNPsGBcI9vWxSGAGFo27aQzi7SJs3ErgeM7X-Udk5oqYWukYhETgqj98_SUncfES4shXghY65PhKV6-9L3RfQPiceBTDI8WHjDibUx02ziTBIDAovi5wHJa0jDUC7OTQK3FwbFf9AigUElPN5CeZn5-prZzP8FEPpzRm00?></g></svg>