<?plantuml 1.2026.1?><svg xmlns="http://www.w3.org/2000/svg" xmlns:xlink="http://www.w3.org/1999/xlink" contentStyleType="text/css" data-diagram-type="DESCRIPTION" height="335px" preserveAspectRatio="none" style="width:534px;height:335px;background:#FFFFFF;" version="1.1" viewBox="0 0 534 335" width="534px" zoomAndPan="magnify"><defs/><g><!--cluster WebApp--><g class="cluster" data-qualified-name="WebApp" data-source-line="4" id="ent0004"><rect fill="none" height="216" rx="2.5" ry="2.5" style="stroke:#181818;stroke-width:1;" width="156" x="372" y="39.5"/><text fill="#000000" font-family="sans-serif" font-size="14" font-weight="bold" lengthAdjust="spacing" textLength="56.7656" x="421.6172" y="56.0332">WebApp</text></g><!--cluster Engine--><g class="cluster" data-qualified-name="Engine" data-source-line="9" id="ent0011"><rect fill="none" height="86" rx="2.5" ry="2.5" style="stroke:#181818;stroke-width:1;" width="337" x="7" y="212.5"/><text fill="#000000" font-family="sans-serif" font-size="14" font-weight="bold" lengthAdjust="spacing" textLength="46.6689" x="152.1655" y="229.0332">Engine</text></g><!--entity Upload Code--><g class="entity" data-qualified-name="WebApp.Upload Code" data-source-line="5" id="ent0005"><ellipse cx="449.7873" cy="223.4517" fill="#F1F1F1" rx="60.7873" ry="15.4517" style="stroke:#181818;stroke-width:0.5;"/><text fill="#000000" font-family="sans-serif" font-size="14" lengthAdjust="spacing" textLength="81.7236" x="408.9255" y="228.7564">Upload Code</text></g><!--entity View Reports--><g class="entity" data-qualified-name="WebApp.View Reports" data-source-line="6" id="ent0007"><ellipse cx="449.8701" cy="157.4517" fill="#F1F1F1" rx="61.8701" ry="15.4517" style="stroke:#181818;stroke-width:0.5;"/><text fill="#000000" font-family="sans-serif" font-size="14" lengthAdjust="spacing" textLength="83.2549" x="408.2427" y="162.7564">View Reports</text></g><!--entity Trigger Scan--><g class="entity" data-qualified-name="WebApp.Trigger Scan" data-source-line="7" id="ent0009"><ellipse cx="450.1707" cy="91.4517" fill="#F1F1F1" rx="59.6707" ry="15.4517" style="stroke:#181818;stroke-width:0.5;"/><text fill="#000000" font-family="sans-serif" font-size="14" lengthAdjust="spacing" textLength="80.1445" x="410.0985" y="96.7564">Trigger Scan</text></g><!--entity Scan Code--><g class="entity" data-qualified-name="Engine.Scan Code" data-source-line="10" id="ent0012"><ellipse cx="74.9803" cy="266.4517" fill="#F1F1F1" rx="51.9803" ry="15.4517" style="stroke:#181818;stroke-width:0.5;"/><text fill="#000000" font-family="sans-serif" font-size="14" lengthAdjust="spacing" textLength="69.2686" x="40.346" y="271.7564">Scan Code</text></g><!--entity Explain Findings--><g class="entity" data-qualified-name="Engine.Explain Findings" data-source-line="11" id="ent0013"><ellipse cx="257.6469" cy="265.5294" fill="#F1F1F1" rx="70.6469" ry="16.5294" style="stroke:#181818;stroke-width:0.5;"/><text fill="#000000" font-family="sans-serif" font-size="14" lengthAdjust="spacing" textLength="102.7236" x="206.2851" y="270.8341">Explain Findings</text></g><!--entity User--><g class="entity" data-qualified-name="User" data-source-line="2" id="ent0002"><ellipse cx="257.2793" cy="127" fill="#F1F1F1" rx="8" ry="8" style="stroke:#181818;stroke-width:0.5;"/><path d="M257.2793,135 L257.2793,162 M244.2793,143 L270.2793,143 M257.2793,162 L244.2793,177 M257.2793,162 L270.2793,177" fill="none" style="stroke:#181818;stroke-width:0.5;"/><text fill="#000000" font-family="sans-serif" font-size="14" lengthAdjust="spacing" textLength="29.5586" x="242.5" y="193.0332">User</text></g><!--entity Bot--><g class="entity" data-qualified-name="Bot" data-source-line="3" id="ent0003"><ellipse cx="257.3413" cy="14" fill="#F1F1F1" rx="8" ry="8" style="stroke:#181818;stroke-width:0.5;"/><path d="M257.3413,22 L257.3413,49 M244.3413,30 L270.3413,30 M257.3413,49 L244.3413,64 M257.3413,49 L270.3413,64" fill="none" style="stroke:#181818;stroke-width:0.5;"/><text fill="#000000" font-family="sans-serif" font-size="14" lengthAdjust="spacing" textLength="46.6826" x="234" y="80.0332">CI / Bot</text></g><!--link User to Upload Code--><g class="link" data-entity-1="ent0002" data-entity-2="ent0005" data-link-type="dependency" data-source-line="5" id="lnk6"><path d="M272.51,162.35 C301.89,172.53 365.1004,194.4363 407.6004,209.1563" fill="none" id="User-to-Upload Code" style="stroke:#181818;stroke-width:1;"/><polygon fill="#181818" points="413.27,211.12,406.0748,204.3948,408.5454,209.4836,403.4565,211.9542,413.27,211.12" style="stroke:#181818;stroke-width:1;"/></g><!--link User to View Reports--><g class="link" data-entity-1="ent0002" data-entity-2="ent0007" data-link-type="dependency" data-source-line="6" id="lnk8"><path d="M272.51,157.5 C296.57,157.5 341.1,157.5 381.95,157.5" fill="none" id="User-to-View Reports" style="stroke:#181818;stroke-width:1;"/><polygon fill="#181818" points="387.95,157.5,378.95,153.5,382.95,157.5,378.95,161.5,387.95,157.5" style="stroke:#181818;stroke-width:1;"/></g><!--link Bot to Trigger Scan--><g class="link" data-entity-1="ent0003" data-entity-2="ent0009" data-link-type="dependency" data-source-line="7" id="lnk10"><path d="M281.1,50.08 C311.85,57.66 361.6446,69.9532 400.4046,79.5132" fill="none" id="Bot-to-Trigger Scan" style="stroke:#181818;stroke-width:1;"/><polygon fill="#181818" points="406.23,80.95,398.4497,74.9112,401.3755,79.7527,396.534,82.6784,406.23,80.95" style="stroke:#181818;stroke-width:1;"/></g><!--link Upload Code to Scan Code--><g class="link" data-entity-1="ent0005" data-entity-2="ent0012" data-link-type="dependency" data-source-line="14" id="lnk14"><path d="M435.76,238.8 C418.61,257.31 386.78,287.5 352,299.5 C266.69,328.94 164.3877,299.8134 112.3877,280.8734" fill="none" id="Upload Code-to-Scan Code" style="stroke:#181818;stroke-width:1;"/><polygon fill="#181818" points="106.75,278.82,113.8376,285.6586,111.4481,280.5312,116.5755,278.1417,106.75,278.82" style="stroke:#181818;stroke-width:1;"/></g><!--link Scan Code to Explain Findings--><g class="link" data-entity-1="ent0012" data-entity-2="ent0013" data-link-type="dependency" data-source-line="15" id="lnk15"><path d="M127.24,266.22 C145.79,266.11 161.0701,266.0332 180.9301,265.9232" fill="none" id="Scan Code-to-Explain Findings" style="stroke:#181818;stroke-width:1;"/><polygon fill="#181818" points="186.93,265.89,177.908,261.9399,181.9301,265.9177,177.9523,269.9398,186.93,265.89" style="stroke:#181818;stroke-width:1;"/></g><!--link Explain Findings to View Reports--><g class="link" data-entity-1="ent0013" data-entity-2="ent0007" data-link-type="dependency" data-source-line="16" id="lnk16"><path d="M294.63,251.44 C313.49,242.72 335.93,230 352,213.5 C360.04,205.24 355.41,198.19 364,190.5 C375.32,180.36 384.4585,175.2052 398.5085,170.1952" fill="none" id="Explain Findings-to-View Reports" style="stroke:#181818;stroke-width:1;"/><polygon fill="#181818" points="404.16,168.18,394.3393,167.4352,399.4505,169.8593,397.0263,174.9705,404.16,168.18" style="stroke:#181818;stroke-width:1;"/></g><?plantuml-src ROxD2i8m3CVlVOgmqtOOle6WOu9NTNgkQwo1afQse22-k-qciZ5F2Vdb_s7m5Y5QyAJl4HHvx2DP5hAFraCNq7_Nejd32hOs5Y13dYA_IjO6uOBNZNFm4Z0eeAxNK7REMAcWiGgh6JWJFk20pleOCabU8pYb4Zfz7Nl9bNXF0bhMn3W4b9d-NClswOmaXXsn8jOXwyGiU_IUg2Rxo9OUozE_wXy0?></g></svg>